<svg width="14" height="16" viewBox="0 0 14 16" fill="none" xmlns="http://www.w3.org/2000/svg">
<path d="M11.6673 5.616V4.66667C11.6673 3.42899 11.1757 2.242 10.3005 1.36684C9.42531 0.491665 8.23833 0 7.00065 0C5.76297 0 4.57599 0.491665 3.70082 1.36684C2.82565 2.242 2.33398 3.42899 2.33398 4.66667V5.616C1.74022 5.87514 1.23485 6.30168 0.87965 6.84347C0.524455 7.38527 0.334837 8.01882 0.333984 8.66667V12.6667C0.335043 13.5504 0.686572 14.3976 1.31146 15.0225C1.93636 15.6474 2.78359 15.9989 3.66732 16H10.334C11.2177 15.9989 12.0649 15.6474 12.6898 15.0225C13.3147 14.3976 13.6663 13.5504 13.6673 12.6667V8.66667C13.6665 8.01882 13.4768 7.38527 13.1217 6.84347C12.7665 6.30168 12.2611 5.87514 11.6673 5.616ZM3.66732 4.66667C3.66732 3.78261 4.01851 2.93477 4.64363 2.30964C5.26875 1.68452 6.1166 1.33333 7.00065 1.33333C7.88471 1.33333 8.73255 1.68452 9.35767 2.30964C9.98279 2.93477 10.334 3.78261 10.334 4.66667V5.33333H3.66732V4.66667ZM12.334 12.6667C12.334 13.1971 12.1233 13.7058 11.7482 14.0809C11.3731 14.456 10.8644 14.6667 10.334 14.6667H3.66732C3.13688 14.6667 2.62818 14.456 2.2531 14.0809C1.87803 13.7058 1.66732 13.1971 1.66732 12.6667V8.66667C1.66732 8.13623 1.87803 7.62753 2.2531 7.25245C2.62818 6.87738 3.13688 6.66667 3.66732 6.66667H10.334C10.8644 6.66667 11.3731 6.87738 11.7482 7.25245C12.1233 7.62753 12.334 8.13623 12.334 8.66667V12.6667Z" fill="#919191"/>
<path d="M7.00065 9.33301C6.82384 9.33301 6.65427 9.40325 6.52925 9.52827C6.40422 9.65329 6.33398 9.82286 6.33398 9.99967V11.333C6.33398 11.5098 6.40422 11.6794 6.52925 11.8044C6.65427 11.9294 6.82384 11.9997 7.00065 11.9997C7.17747 11.9997 7.34704 11.9294 7.47206 11.8044C7.59709 11.6794 7.66733 11.5098 7.66733 11.333V9.99967C7.66733 9.82286 7.59709 9.65329 7.47206 9.52827C7.34704 9.40325 7.17747 9.33301 7.00065 9.33301Z" fill="#919191"/>
</svg>
