<svg width="67" height="68" viewBox="0 0 67 68" fill="none" xmlns="http://www.w3.org/2000/svg">
<rect x="0.5" y="0.5" width="66" height="67" rx="11.5" fill="#F5F5F5" stroke="#FF9103"/>
<path fill-rule="evenodd" clip-rule="evenodd" d="M27.4993 49H40.4992C45.5847 49 49 45.4328 49 40.125V27.8751C49 22.5672 45.5847 19 40.5007 19H27.4993C22.4153 19 19 22.5672 19 27.8751V40.125C19 45.4328 22.4153 49 27.4993 49ZM28.7483 32.5C26.6803 32.5 25 30.8174 25 28.75C25 26.6826 26.6803 25 28.7483 25C30.8148 25 32.4965 26.6826 32.4965 28.75C32.4965 30.8174 30.8148 32.5 28.7483 32.5ZM45.7312 38.401C46.2336 39.6889 45.9725 41.2369 45.4355 42.5124C44.7991 44.0294 43.5803 45.178 42.0448 45.6796C41.363 45.9025 40.648 46 39.9346 46H27.293C26.035 46 24.9218 45.6982 24.0092 45.1362C23.4376 44.7834 23.3365 43.969 23.7604 43.4412C24.4693 42.5588 25.1692 41.6734 25.8751 40.7801C27.2206 39.0712 28.1271 38.5759 29.1347 39.0109C29.5434 39.1905 29.9537 39.4597 30.3761 39.7446C31.5013 40.5093 33.0655 41.5603 35.1259 40.4195C36.5359 39.6298 37.3537 38.2752 38.0659 37.0956L38.0778 37.0759C38.1283 36.9931 38.1782 36.9103 38.2281 36.8278C38.4674 36.4318 38.7036 36.041 38.9707 35.681C39.3057 35.2306 40.5469 33.822 42.1549 34.8252C43.1791 35.4566 44.0404 36.3112 44.962 37.226C45.3135 37.5758 45.5638 37.9736 45.7312 38.401Z" fill="#E4E4E4"/>
</svg>
