<svg width="161" height="155" viewBox="0 0 161 155" fill="none" xmlns="http://www.w3.org/2000/svg">
<rect width="161" height="155" rx="12" fill="#F5F5F5"/>
<path fill-rule="evenodd" clip-rule="evenodd" d="M62.9424 119.667H99.0533C113.18 119.667 122.667 109.758 122.667 95.0138V60.9863C122.667 46.2421 113.18 36.3333 99.0575 36.3333H62.9424C48.8204 36.3333 39.3333 46.2421 39.3333 60.9863V95.0138C39.3333 109.758 48.8204 119.667 62.9424 119.667ZM66.4119 73.8333C60.6676 73.8333 56 69.1595 56 63.4167C56 57.6739 60.6676 53 66.4119 53C72.1521 53 76.8238 57.6739 76.8238 63.4167C76.8238 69.1595 72.1521 73.8333 66.4119 73.8333ZM113.587 90.225C114.982 93.8025 114.257 98.1025 112.765 101.645C110.998 105.86 107.612 109.05 103.347 110.443C101.453 111.063 99.4667 111.333 97.485 111.333H62.3693C58.875 111.333 55.7828 110.495 53.2479 108.934C51.66 107.954 51.3793 105.692 52.5566 104.225C54.5258 101.775 56.47 99.315 58.4308 96.8338C62.1683 92.0867 64.6864 90.7108 67.4852 91.9192C68.6207 92.4179 69.7603 93.1659 70.9335 93.9571C74.0592 96.0813 78.4042 99.0008 84.1275 95.8321C88.0442 93.6383 90.3158 89.8754 92.2942 86.5988L92.3271 86.5442C92.4675 86.3142 92.6063 86.0842 92.7446 85.855C93.4096 84.755 94.0654 83.6696 94.8075 82.6696C95.7379 81.4183 99.1858 77.5054 103.653 80.2921C106.498 82.0463 108.89 84.42 111.45 86.9613C112.426 87.9329 113.122 89.0379 113.587 90.225Z" fill="#E4E4E4"/>
</svg>
